<svg width="171" height="58" xmlns="http://www.w3.org/2000/svg">
  <g fill="#FFF" fill-rule="evenodd">
    <path d="M30.7 31.8h2.1c2.2 0 4-.2 5.6-1.7 1.4-1.2 2-3.3 2-5 0-2-.8-3.8-2.3-5.1-1.6-1.3-4-1.4-5.9-1.4H26v19.2h4.7v-6zm0-8.9h1.8c1.6 0 3.2.3 3.2 2.3 0 2-1.5 2.3-3.1 2.3h-2v-4.6h.1zM47 29.9c0-2.2 1.5-2.6 3.4-2.7v-4.3c-1.7 0-2.9.5-3.6 2h-.1v-1.5h-4.1v14.4h4.3v-7.9h.1zM59.4 38.2c4.4 0 7.8-3.2 7.8-7.7 0-4.4-3.4-7.7-7.8-7.7s-7.8 3.2-7.8 7.7 3.4 7.7 7.8 7.7zm0-11.3c2 0 3.5 1.7 3.5 3.6 0 1.9-1.5 3.6-3.5 3.6s-3.5-1.7-3.5-3.6c0-1.9 1.5-3.6 3.5-3.6zM73.8 37.5V23.4h-4.3v14.3c0 1.1-.1 2.2-1.5 2.2h-.6v3.3h1.1c4.2-.1 5.3-1.7 5.3-5.7zM69.5 18.5h4.3v3.3h-4.3zM83.7 38.3c3.2 0 5.8-2.1 7-5h-4.4c-.7.9-1.5 1.4-2.6 1.4-1.7 0-3.1-1-3.4-2.7h10.8c.1-.4.1-.8.1-1.1 0-4.3-3.2-7.9-7.6-7.9-4.2 0-7.6 3.6-7.6 7.7.1 4.1 3.5 7.6 7.7 7.6zm0-11.8c1.6 0 2.9.9 3.3 2.5h-6.6c.3-1.6 1.7-2.5 3.3-2.5zM100.5 38.3c3.6 0 6.7-2.4 7.6-6h-4.4c-.6 1.2-1.7 1.9-3.1 1.9-2.1 0-3.4-1.6-3.4-3.7 0-2 1.2-3.7 3.3-3.7 1.5 0 2.6.7 3.2 2h4.4c-.8-3.7-4-6.1-7.6-6.1-4.3 0-7.6 3.4-7.6 7.7-.2 4.5 3.2 7.9 7.6 7.9zM111.3 37.8h4.3V26.6h2v-3.2h-2v-4.9h-4.3v4.9h-2.2v3.2h2.2M132.4 35h6.7l.9 2.8h5.3l-7.6-19.2h-3.9l-7.7 19.2h5.3l1-2.8zm3.3-10.5l2.1 6.6h-4l1.9-6.6z"/>
    <path d="M.1.4v56.7h170.1V.4H.1zm165.3 52.2H4.8V4.8h160.7v47.8h-.1z"/>
  </g>
</svg>
