<?xml version="1.0" encoding="utf-8"?>
<!-- Generator: Adobe Illustrator 21.0.2, SVG Export Plug-In . SVG Version: 6.00 Build 0)  -->
<svg version="1.1" xmlns="http://www.w3.org/2000/svg" xmlns:xlink="http://www.w3.org/1999/xlink" x="0px" y="0px"
	 viewBox="0 0 283.5 226.8" style="enable-background:new 0 0 283.5 226.8;" xml:space="preserve">
<style type="text/css">
	.st0{display:none;}
	.st1{display:inline;fill:#FFFFFF;}
	.st2{display:inline;}
	.st3{fill:none;stroke:#E4007E;stroke-width:0.5;stroke-miterlimit:10;}
	.st4{fill:none;stroke:#E4007E;stroke-width:0.5;stroke-miterlimit:10;stroke-dasharray:1.0052,2.0104;}
	.st5{fill:none;stroke:#E4007E;stroke-width:0.5;stroke-miterlimit:10;stroke-dasharray:0.9946,1.9892;}
	.st6{fill:#FFFFFF;}
</style>
<g id="Grid" class="st0">
	<rect x="0.4" y="0.3" class="st1" width="283.5" height="226.8"/>
	<g class="st2">
		<g>
			<g>
				<line class="st3" x1="283.8" y1="227.1" x2="283.3" y2="227.1"/>
				<line class="st4" x1="281.3" y1="227.1" x2="1.9" y2="227.1"/>
				<line class="st3" x1="0.9" y1="227.1" x2="0.4" y2="227.1"/>
			</g>
		</g>
		<g>
			<g>
				<line class="st3" x1="283.8" y1="227.1" x2="283.8" y2="226.6"/>
				<line class="st5" x1="283.8" y1="224.6" x2="283.8" y2="1.8"/>
				<line class="st3" x1="283.8" y1="0.8" x2="283.8" y2="0.3"/>
			</g>
		</g>
		<g>
			<g>
				<line class="st3" x1="255.5" y1="227.1" x2="255.5" y2="226.6"/>
				<line class="st5" x1="255.5" y1="224.6" x2="255.5" y2="1.8"/>
				<line class="st3" x1="255.5" y1="0.8" x2="255.5" y2="0.3"/>
			</g>
		</g>
		<g>
			<g>
				<line class="st3" x1="227.1" y1="227.1" x2="227.1" y2="226.6"/>
				<line class="st5" x1="227.1" y1="224.6" x2="227.1" y2="1.8"/>
				<line class="st3" x1="227.1" y1="0.8" x2="227.1" y2="0.3"/>
			</g>
		</g>
		<g>
			<g>
				<line class="st3" x1="198.8" y1="227.1" x2="198.8" y2="226.6"/>
				<line class="st5" x1="198.8" y1="224.6" x2="198.8" y2="1.8"/>
				<line class="st3" x1="198.8" y1="0.8" x2="198.8" y2="0.3"/>
			</g>
		</g>
		<g>
			<g>
				<line class="st3" x1="170.4" y1="227.1" x2="170.4" y2="226.6"/>
				<line class="st5" x1="170.4" y1="224.6" x2="170.4" y2="1.8"/>
				<line class="st3" x1="170.4" y1="0.8" x2="170.4" y2="0.3"/>
			</g>
		</g>
		<g>
			<g>
				<line class="st3" x1="142.1" y1="227.1" x2="142.1" y2="226.6"/>
				<line class="st5" x1="142.1" y1="224.6" x2="142.1" y2="1.8"/>
				<line class="st3" x1="142.1" y1="0.8" x2="142.1" y2="0.3"/>
			</g>
		</g>
		<g>
			<g>
				<line class="st3" x1="113.8" y1="227.1" x2="113.8" y2="226.6"/>
				<line class="st5" x1="113.8" y1="224.6" x2="113.8" y2="1.8"/>
				<line class="st3" x1="113.8" y1="0.8" x2="113.8" y2="0.3"/>
			</g>
		</g>
		<g>
			<g>
				<line class="st3" x1="85.4" y1="227.1" x2="85.4" y2="226.6"/>
				<line class="st5" x1="85.4" y1="224.6" x2="85.4" y2="1.8"/>
				<line class="st3" x1="85.4" y1="0.8" x2="85.4" y2="0.3"/>
			</g>
		</g>
		<g>
			<g>
				<line class="st3" x1="57.1" y1="227.1" x2="57.1" y2="226.6"/>
				<line class="st5" x1="57.1" y1="224.6" x2="57.1" y2="1.8"/>
				<line class="st3" x1="57.1" y1="0.8" x2="57.1" y2="0.3"/>
			</g>
		</g>
		<g>
			<g>
				<line class="st3" x1="28.7" y1="227.1" x2="28.7" y2="226.6"/>
				<line class="st5" x1="28.7" y1="224.6" x2="28.7" y2="1.8"/>
				<line class="st3" x1="28.7" y1="0.8" x2="28.7" y2="0.3"/>
			</g>
		</g>
		<g>
			<g>
				<line class="st3" x1="0.4" y1="227.1" x2="0.4" y2="226.6"/>
				<line class="st5" x1="0.4" y1="224.6" x2="0.4" y2="1.8"/>
				<line class="st3" x1="0.4" y1="0.8" x2="0.4" y2="0.3"/>
			</g>
		</g>
		<g>
			<g>
				<line class="st3" x1="283.8" y1="198.7" x2="283.3" y2="198.7"/>
				<line class="st4" x1="281.3" y1="198.7" x2="1.9" y2="198.7"/>
				<line class="st3" x1="0.9" y1="198.7" x2="0.4" y2="198.7"/>
			</g>
		</g>
		<g>
			<g>
				<line class="st3" x1="283.8" y1="170.4" x2="283.3" y2="170.4"/>
				<line class="st4" x1="281.3" y1="170.4" x2="1.9" y2="170.4"/>
				<line class="st3" x1="0.9" y1="170.4" x2="0.4" y2="170.4"/>
			</g>
		</g>
		<g>
			<g>
				<line class="st3" x1="283.8" y1="142.1" x2="283.3" y2="142.1"/>
				<line class="st4" x1="281.3" y1="142.1" x2="1.9" y2="142.1"/>
				<line class="st3" x1="0.9" y1="142.1" x2="0.4" y2="142.1"/>
			</g>
		</g>
		<g>
			<g>
				<line class="st3" x1="283.8" y1="113.7" x2="283.3" y2="113.7"/>
				<line class="st4" x1="281.3" y1="113.7" x2="1.9" y2="113.7"/>
				<line class="st3" x1="0.9" y1="113.7" x2="0.4" y2="113.7"/>
			</g>
		</g>
		<g>
			<g>
				<line class="st3" x1="283.8" y1="85.4" x2="283.3" y2="85.4"/>
				<line class="st4" x1="281.3" y1="85.4" x2="1.9" y2="85.4"/>
				<line class="st3" x1="0.9" y1="85.4" x2="0.4" y2="85.4"/>
			</g>
		</g>
		<g>
			<g>
				<line class="st3" x1="283.8" y1="57" x2="283.3" y2="57"/>
				<line class="st4" x1="281.3" y1="57" x2="1.9" y2="57"/>
				<line class="st3" x1="0.9" y1="57" x2="0.4" y2="57"/>
			</g>
		</g>
		<g>
			<g>
				<line class="st3" x1="283.8" y1="28.7" x2="283.3" y2="28.7"/>
				<line class="st4" x1="281.3" y1="28.7" x2="1.9" y2="28.7"/>
				<line class="st3" x1="0.9" y1="28.7" x2="0.4" y2="28.7"/>
			</g>
		</g>
		<g>
			<g>
				<line class="st3" x1="283.8" y1="0.3" x2="283.3" y2="0.3"/>
				<line class="st4" x1="281.3" y1="0.3" x2="1.9" y2="0.3"/>
				<line class="st3" x1="0.9" y1="0.3" x2="0.4" y2="0.3"/>
			</g>
		</g>
	</g>
</g>
<g id="Frame">
	<g>
		<path class="st6" d="M87.7,116.8h2.1c2.2,0,4-0.2,5.6-1.7c1.4-1.2,2-3.3,2-5c0-2-0.8-3.8-2.3-5.1c-1.6-1.3-4-1.4-5.9-1.4H83v19.2
			h4.7V116.8z M87.7,107.9h1.8c1.6,0,3.2,0.3,3.2,2.3c0,2-1.5,2.3-3.1,2.3h-2V107.9z"/>
		<path class="st6" d="M104,114.9c0-2.2,1.5-2.6,3.4-2.7v-4.3c-1.7,0-2.9,0.5-3.6,2h-0.1v-1.5h-4.1v14.4h4.3V114.9z"/>
		<path class="st6" d="M116.4,123.2c4.4,0,7.8-3.2,7.8-7.7c0-4.4-3.4-7.7-7.8-7.7c-4.4,0-7.8,3.2-7.8,7.7
			C108.6,120,112,123.2,116.4,123.2z M116.4,111.9c2,0,3.5,1.7,3.5,3.6s-1.5,3.6-3.5,3.6c-2,0-3.5-1.7-3.5-3.6
			S114.4,111.9,116.4,111.9z"/>
		<path class="st6" d="M130.8,122.5v-14.1h-4.3v14.3c0,1.1-0.1,2.2-1.5,2.2h-0.6v3.3h1.1C129.7,128.1,130.8,126.5,130.8,122.5z"/>
		<rect x="126.5" y="103.5" class="st6" width="4.3" height="3.3"/>
		<path class="st6" d="M140.7,123.3c3.2,0,5.8-2.1,7-5h-4.4c-0.7,0.9-1.5,1.4-2.6,1.4c-1.7,0-3.1-1-3.4-2.7h10.8
			c0.1-0.4,0.1-0.8,0.1-1.1c0-4.3-3.2-7.9-7.6-7.9c-4.2,0-7.6,3.6-7.6,7.7C133.1,119.8,136.5,123.3,140.7,123.3z M140.7,111.5
			c1.6,0,2.9,0.9,3.3,2.5h-6.6C137.7,112.4,139.1,111.5,140.7,111.5z"/>
		<path class="st6" d="M157.5,123.3c3.6,0,6.7-2.4,7.6-6h-4.4c-0.6,1.2-1.7,1.9-3.1,1.9c-2.1,0-3.4-1.6-3.4-3.7c0-2,1.2-3.7,3.3-3.7
			c1.5,0,2.6,0.7,3.2,2h4.4c-0.8-3.7-4-6.1-7.6-6.1c-4.3,0-7.6,3.4-7.6,7.7C149.7,119.9,153.1,123.3,157.5,123.3z"/>
		<polygon class="st6" points="168.3,122.8 172.6,122.8 172.6,111.6 174.6,111.6 174.6,108.4 172.6,108.4 172.6,103.5 168.3,103.5 
			168.3,108.4 166.1,108.4 166.1,111.6 168.3,111.6 		"/>
		<path class="st6" d="M189.4,120h6.7l0.9,2.8h5.3l-7.6-19.2h-3.9l-7.7,19.2h5.3L189.4,120z M192.7,109.5L192.7,109.5L192.7,109.5
			l2.1,6.6h-4L192.7,109.5z"/>
		<path class="st6" d="M57.1,85.4L57.1,85.4l0,56.7h0h170.1V85.4H57.1z M222.4,137.6H61.8V89.8h160.7V137.6z"/>
	</g>
</g>
</svg>
